<?xml version="1.0" encoding="UTF-8"?>
<svg id="Livello_2" data-name="Livello 2" xmlns="http://www.w3.org/2000/svg" viewBox="0 0 930.57 128.54">
  <defs>
    <style>
      .cls-1 {
        fill: #1d1d1b;
        stroke: #1d1d1b;
        stroke-miterlimit: 10;
        stroke-width: .25px;
      }
    </style>
  </defs>
  <g id="Livello_1-2" data-name="Livello 1">
    <g>
      <path class="cls-1" d="M68.98,128.42C7.32,128.42.12,106.26.12,93.16v-1.29h57.04c1.72,0,3.24,1.12,3.71,2.78,1.05,3.69,4.62,7.93,14.94,7.93h.37c12,0,14.95-3.51,14.95-7.38v-.19c0-4.43-2.77-6.83-16.06-7.38l-24.37-.92C10.65,85.22,1.6,70.45,1.6,55.32v-1.29c0-17.35,12.18-30.46,67.56-30.46h12.37c56.12,0,68.12,14.21,68.12,30.27v1.48h-55.54c-1.62,0-3.19-.92-3.76-2.44-1-2.67-4.29-5.69-14.54-5.69h-.37c-12.37,0-14.77,2.22-14.77,5.91v.19c0,3.51,2.77,6.09,16.06,6.64l24.37.93c43.56,1.48,52.61,12.37,52.61,32.12v1.48c0,17.91-10.34,33.97-71.81,33.97h-12.92Z"/>
      <path class="cls-1" d="M201.88,128.42c-16.06,0-28.06-7.75-28.06-28.43v-33.23c0-2.14-1.74-3.88-3.88-3.88h-10.89c-2.14,0-3.88-1.74-3.88-3.88v-26.02c0-2.14,1.74-3.88,3.88-3.88h10.89c2.14,0,3.88-1.74,3.88-3.88V4c0-2.14,1.74-3.88,3.88-3.88h51.68c2.14,0,3.88,1.74,3.88,3.88v21.23c0,2.14,1.74,3.88,3.88,3.88h10.7c2.14,0,3.88,1.74,3.88,3.88v26.02c0,2.14-1.74,3.88-3.88,3.88h-10.7c-2.14,0-3.88,1.74-3.88,3.88v18.27c0,6.83,1.29,9.04,8.68,9.04h5.91c2.14,0,3.88,1.74,3.88,3.88v26.58c0,2.14-1.74,3.88-3.88,3.88h-45.96Z"/>
      <path class="cls-1" d="M423.39,88.73c0,14.21-7.94,39.69-78.64,39.69h-8.86c-69.59,0-78.08-31.01-78.08-51.69v-2.95c0-20.49,8.31-50.21,77.9-50.21h8.86c72.18,0,79.01,31.38,79.01,54.82h0c0,2.14-1.74,3.88-3.88,3.88h-98.29c-2.71,0-4.64,2.73-3.64,5.25,2.6,6.56,9.25,11.92,23.48,11.92,16.26,0,21.11-5.37,22.7-8.74.63-1.33,1.99-2.15,3.47-2.15h55.98v.19ZM358.47,62.15c3.25,0,5.13-3.81,3.04-6.31-3.29-3.93-9.6-6.43-20.82-6.43s-17.82,2.57-21,6.48c-2.04,2.5-.15,6.26,3.08,6.26h35.7Z"/>
      <path class="cls-1" d="M491.49,38.14c0,3.4,4.03,5.11,6.54,2.82,7.15-6.54,19.13-14.06,36.47-14.06h2.22c37.1,0,43.38,26.58,43.38,43.38v10.71c0,2.14-1.74,3.88-3.88,3.88h-50.58c-2.14,0-3.88-1.74-3.88-3.88v-3.14c0-9.41-3.69-16.98-14.58-16.98-9.6,0-15.32,6.46-15.32,19.01v44.67c0,2.14-1.74,3.88-3.88,3.88h-51.87c-2.14,0-3.88-1.74-3.88-3.88V32.98c0-2.14,1.74-3.88,3.88-3.88h51.5c2.14,0,3.88,1.74,3.88,3.88v5.15Z"/>
      <path class="cls-1" d="M751.4,88.73c0,14.21-7.94,39.69-78.64,39.69h-8.86c-69.59,0-78.08-31.01-78.08-51.69v-2.95c0-20.49,8.31-50.21,77.9-50.21h8.86c72.18,0,79.01,31.38,79.01,54.82h0c0,2.14-1.74,3.88-3.88,3.88h-98.29c-2.71,0-4.64,2.73-3.64,5.25,2.6,6.56,9.25,11.92,23.48,11.92,16.26,0,21.1-5.37,22.7-8.74.63-1.33,1.99-2.15,3.47-2.15h55.98v.19ZM686.47,62.15c3.25,0,5.13-3.81,3.04-6.31-3.29-3.93-9.6-6.43-20.82-6.43s-17.81,2.57-21,6.48c-2.04,2.5-.15,6.26,3.08,6.26h35.7Z"/>
      <path class="cls-1" d="M836.67,128.42c-70.51,0-79.56-32.12-79.56-51.5v-2.96c0-19.01,9.23-50.39,79.38-50.39h14.77c72.18,0,79.19,31.38,79.19,50.39v2.96c0,19.38-7.02,51.5-79.56,51.5h-14.21ZM843.5,53.29c-21.04,0-25.84,12.18-25.84,21.6v.18c0,9.78,4.43,23.45,25.84,23.45h.55c21.04,0,25.84-13.85,25.84-23.45v-.18c0-9.23-4.8-21.6-25.84-21.6h-.55Z"/>
    </g>
  </g>
</svg>